{"title":"Rabbit Hole 2010 WEBSCR x264 Feel-Free","uid":6136712,"size":1129012012,"categoryP":"video","categoryS":"movies","magnet":"?xt=urn:btih:1cede6991bcf43c0509784c93cd15470aff0050b&amp;dn=Rabbit+Hole+2010+WEBSCR+x264+Feel-Free&amp;tr=udp%3A%2F%2Ftracker.openbittorrent.com%3A80&amp;tr=udp%3A%2F%2Fopen.demonii.com%3A1337&amp;tr=udp%3A%2F%2Ftracker.coppersurfer.tk%3A6969&amp;tr=udp%3A%2F%2Fexodus.desync.com%3A6969","seeders":0,"leechers":0,"uploader":"neon","files":-1,"time":1296328079,"description":"Genre:Drama\nLanguage:English\n &lt;a href=&quot; http://www.imdb.com/title/tt0935075/&quot; rel=&quot;nofollow&quot; target=&quot;_NEW&quot;&gt; http://www.imdb.com/title/tt0935075/&lt;/a&gt;\nSource:mf34inc/T0XiC-iNK Thx.\n\n\nFormat : MPEG-4\nFormat profile : Base Media\nCodec ID : isom\nFile size : 1.05 GiB\nDuration : 1h 31mn\nOverall bit rate : 1 641 Kbps\nMovie name : Rabbit Hole 2010 WEBSCR x264 Feel-Free\n\nVideo\nFormat settings, CABAC : Yes\nFormat settings, ReFrames : 4 frames\nCodec ID : avc1\nCodec ID/Info : Advanced Video Coding\nDuration : 1h 31mn\nBit rate mode : Variable\nBit rate : 1 267 Kbps\nWidth : 720 pixels\nHeight : 384 pixels\nDisplay aspect ratio : 1.875\nFrame rate mode : Constant\nFrame rate : 23.976 fps\nColor space : YUV\nChroma subsampling : 4:2:0\nBit depth : 8 bits\nScan type : Progressive\nBits/(Pixel*Frame) : 0.191\nStream size : 819 MiB (76%)\nWriting library : x264\n\nAudio\nID : 2\nFormat : AAC\nFormat/Info : Advanced Audio Codec\nFormat version : Version 4\nFormat profile : LC\nCodec ID : 40\nDuration : 1h 31mn\nBit rate mode : Variable\nBit rate : 384 Kbps\nChannel(s) : 6 channels\nChannel positions : Front: L C R, Side: L R, LFE\nSampling rate : 48.0 KHz\nStream size : 251 MiB (23%)\n\n\n\nPlot:\nLife for a happy couple is turned upside down after their young son dies in an accident. Based on a play by David Lindsay-Abaire\n &lt;a href=&quot;\nhttp://rapidhdd.com/images/589986vlcsnap-00001.png&quot; rel=&quot;nofollow&quot; target=&quot;_NEW&quot;&gt;\nhttp://rapidhdd.com/images/589986vlcsnap-00001.png&lt;/a&gt; &lt;a href=&quot;\nhttp://www.rapidhdd.com/images/850492vlcsnap-00002.png&quot; rel=&quot;nofollow&quot; target=&quot;_NEW&quot;&gt;\nhttp://www.rapidhdd.com/images/850492vlcsnap-00002.png&lt;/a&gt; &lt;a href=&quot;\nhttp://www.rapidhdd.com/images/206739vlcsnap-00006.png&quot; rel=&quot;nofollow&quot; target=&quot;_NEW&quot;&gt;\nhttp://www.rapidhdd.com/images/206739vlcsnap-00006.png&lt;/a&gt; &lt;a href=&quot;\nhttp://www.rapidhdd.com/images/369821vlcsnap-00005.png&quot; rel=&quot;nofollow&quot; target=&quot;_NEW&quot;&gt;\nhttp://www.rapidhdd.com/images/369821vlcsnap-00005.png&lt;/a&gt; &lt;a href=&quot;\nhttp://www.rapidhdd.com/images/710130vlcsnap-00004.png&quot; rel=&quot;nofollow&quot; target=&quot;_NEW&quot;&gt;\nhttp://www.rapidhdd.com/images/710130vlcsnap-00004.png&lt;/a&gt;","torrent":{"xt":"urn:btih:1cede6991bcf43c0509784c93cd15470aff0050b","amp;dn":"Rabbit+Hole+2010+WEBSCR+x264+Feel-Free","amp;tr":["udp%3A%2F%2Ftracker.openbittorrent.com%3A80","udp%3A%2F%2Fopen.demonii.com%3A1337","udp%3A%2F%2Ftracker.coppersurfer.tk%3A6969","udp%3A%2F%2Fexodus.desync.com%3A6969"],"infoHash":"1cede6991bcf43c0509784c93cd15470aff0050b","infoHashBuffer":{"type":"Buffer","data":[28,237,230,153,27,207,67,192,80,151,132,201,60,209,84,112,175,240,5,11]},"announce":[],"urlList":[]}}